<svg width="232" height="40" viewBox="0 0 232 40" fill="none" xmlns="http://www.w3.org/2000/svg">
<path d="M42.167 14.8198C44.5431 14.8198 46.3629 15.2996 47.6279 16.2593C48.8901 17.2189 49.5879 18.5276 49.7188 20.1851H44.8154C44.7077 19.4231 44.4177 18.9044 43.9482 18.6323C43.4813 18.3578 42.8753 18.2222 42.1338 18.2222C41.482 18.2222 40.9299 18.3477 40.4834 18.5991C40.0372 18.8505 39.8145 19.2355 39.8145 19.7612C39.8145 20.0665 39.9217 20.3055 40.1396 20.48C40.3577 20.6544 40.653 20.8034 41.0225 20.9214C41.3944 21.042 41.8229 21.1476 42.3154 21.2349C42.8055 21.3221 43.3115 21.4093 43.835 21.4966C44.5765 21.6274 45.3234 21.7839 46.0752 21.9712C46.8269 22.1559 47.5119 22.4433 48.1328 22.8384C48.7538 23.231 49.2623 23.7597 49.6523 24.4243C50.0448 25.0889 50.2422 25.9586 50.2422 27.0259C50.2422 27.9418 50.0496 28.7499 49.6699 29.4478C49.2876 30.1457 48.7588 30.7238 48.084 31.1831C47.4092 31.6423 46.6005 31.9914 45.6641 32.23C44.7276 32.4711 43.7138 32.5913 42.626 32.5913C40.1629 32.5913 38.2129 32.0604 36.7734 31.0034C35.3365 29.9437 34.5746 28.4885 34.4873 26.6333H39.5186C39.6289 27.4621 39.9453 28.0854 40.4688 28.4985C40.9922 28.9141 41.7 29.1196 42.5928 29.1196C43.3985 29.1196 44.0353 28.979 44.5049 28.6968C44.9745 28.412 45.208 27.9982 45.208 27.4517C45.208 27.0797 45.0872 26.7822 44.8486 26.5513C44.6075 26.323 44.2918 26.1383 43.8994 25.9946C43.5094 25.8535 43.0546 25.7454 42.5439 25.6685C42.0308 25.5915 41.5019 25.4995 40.958 25.3892C40.2397 25.2583 39.5191 25.1008 38.8008 24.9136C38.0824 24.7288 37.4328 24.4526 36.8555 24.0806C36.2782 23.7111 35.8158 23.2132 35.4668 22.5923C35.1178 21.9713 34.9434 21.1678 34.9434 20.1851C34.9434 19.3127 35.1334 18.5376 35.5156 17.8628C35.8954 17.1854 36.4141 16.6237 37.0684 16.1772C37.7227 15.7308 38.4903 15.3919 39.373 15.1636C40.2556 14.9327 41.1869 14.8198 42.167 14.8198ZM8.76074 14.8491C9.89468 14.8491 10.9234 15.0082 11.8496 15.3237C12.7759 15.6419 13.5771 16.0838 14.252 16.6509C14.9292 17.2179 15.4737 17.8951 15.8867 18.6802C16.3023 19.4653 16.5742 20.3277 16.7051 21.2642H11.5732C11.3988 20.5022 11.0879 19.8968 10.6416 19.4478C10.1951 19.0013 9.58925 18.7778 8.82715 18.7778C7.66992 18.7778 6.81024 19.2194 6.24316 20.1021C5.67627 20.9872 5.39361 22.1929 5.39355 23.7192C5.39355 25.2255 5.67608 26.4142 6.24316 27.2866C6.81024 28.159 7.66996 28.5952 8.82715 28.5952C10.5258 28.5952 11.4957 27.6355 11.7344 25.7163H16.8359C16.7923 26.6759 16.5786 27.5765 16.1963 28.4155C15.8165 29.2571 15.2833 29.9864 14.5957 30.6099C13.908 31.2308 13.0812 31.715 12.1113 32.064C11.1415 32.4129 10.0692 32.5903 8.8916 32.5903C7.54189 32.5903 6.32004 32.3649 5.22949 31.9185C4.14152 31.472 3.21047 30.8477 2.43555 30.0522C1.66321 29.2568 1.06205 28.318 0.638672 27.2378C0.212734 26.1575 0 24.9842 0 23.7192C5.30196e-05 22.4544 0.208022 21.2818 0.621094 20.2017C1.03677 19.1215 1.62468 18.1826 2.38672 17.3872C3.14882 16.5892 4.06974 15.9675 5.14746 15.521C6.22773 15.072 7.43158 14.8491 8.76074 14.8491ZM25.7578 14.8491C27.1099 14.8491 28.3364 15.072 29.4346 15.521C30.5354 15.9675 31.4721 16.5892 32.2471 17.3872C33.0193 18.1826 33.62 19.1215 34.0459 20.2017C34.4692 21.2818 34.6826 22.4544 34.6826 23.7192C34.6826 24.9843 34.4693 26.1575 34.0459 27.2378C33.62 28.318 33.0193 29.2568 32.2471 30.0522C31.4721 30.8477 30.5354 31.472 29.4346 31.9185C28.3364 32.3648 27.1099 32.5903 25.7578 32.5903C24.4083 32.5903 23.1817 32.3648 22.0811 31.9185C20.9802 31.472 20.0381 30.8477 19.2529 30.0522C18.4704 29.2568 17.8644 28.318 17.4385 27.2378C17.0151 26.1575 16.8027 24.9843 16.8027 23.7192C16.8028 22.4544 17.0151 21.2818 17.4385 20.2017C17.8644 19.1215 18.4704 18.1826 19.2529 17.3872C20.0381 16.5892 20.9802 15.9675 22.0811 15.521C23.1817 15.0721 24.4083 14.8491 25.7578 14.8491ZM93.3252 14.8491C94.4567 14.8491 95.4858 15.0081 96.4121 15.3237C97.3384 15.6419 98.139 16.0838 98.8164 16.6509C99.4911 17.2179 100.036 17.8951 100.451 18.6802C100.864 19.4653 101.136 20.3276 101.267 21.2642H96.1348C95.9603 20.5021 95.6496 19.8968 95.2031 19.4478C94.7567 19.0014 94.1515 18.7779 93.3896 18.7778C92.235 18.7778 91.3721 19.2194 90.8076 20.1021C90.2407 20.9872 89.9561 22.1929 89.9561 23.7192C89.9561 25.2255 90.2405 26.4142 90.8076 27.2866C91.3721 28.159 92.235 28.5952 93.3896 28.5952C95.088 28.595 96.0576 27.6353 96.2988 25.7163H101.397C101.354 26.6758 101.141 27.5766 100.762 28.4155C100.379 29.2572 99.8449 29.9863 99.1572 30.6099C98.4722 31.2306 97.6435 31.7151 96.6738 32.064C95.7039 32.4129 94.6309 32.5903 93.4531 32.5903C92.1035 32.5903 90.8819 32.3649 89.7939 31.9185C88.7035 31.472 87.7723 30.8477 87 30.0522C86.2251 29.2568 85.6271 28.318 85.2012 27.2378C84.7752 26.1575 84.5645 24.9843 84.5645 23.7192C84.5645 22.4544 84.7699 21.2818 85.1855 20.2017C85.5986 19.1215 86.1863 18.1826 86.9482 17.3872C87.7129 16.5892 88.6317 15.9675 89.7119 15.521C90.7896 15.0719 91.9934 14.8491 93.3252 14.8491ZM83.793 32.314H78.373V15.3804H83.793V32.314ZM71.2939 14.8198C72.2303 14.8199 73.0564 14.9706 73.7773 15.2759C74.4958 15.5812 75.089 16.013 75.5586 16.5698C76.028 17.1266 76.3825 17.7965 76.6211 18.5815C76.8596 19.3691 76.9795 20.2286 76.9795 21.1675V32.271H71.6533V22.1167C71.6533 21.201 71.4607 20.498 71.0811 20.0054C70.6987 19.5153 70.1052 19.269 69.2969 19.269C68.4478 19.2692 67.7936 19.5872 67.3369 20.2183C66.8802 20.8521 66.6514 21.671 66.6514 22.6743V32.271H61.3223V22.1167C61.3222 21.2009 61.1323 20.498 60.75 20.0054C60.3702 19.5153 59.7745 19.269 58.9688 19.269C58.1402 19.2692 57.4939 19.5872 57.0244 20.2183C56.5548 20.8521 56.3213 21.671 56.3213 22.6743V32.271H50.9941V15.3101H56.0928V17.6987H56.1904C56.7139 16.8263 57.3836 16.1284 58.2021 15.605C59.0181 15.0816 60.0365 14.8199 61.2578 14.8198C62.3688 14.8198 63.3208 15.0816 64.1162 15.605C64.9116 16.1284 65.5277 16.8466 65.9639 17.7651H66.0312C66.6829 16.739 67.4524 15.9925 68.335 15.5229C69.2177 15.0534 70.2034 14.8198 71.2939 14.8198ZM25.7266 18.6138C24.5491 18.6139 23.6667 19.0831 23.0791 20.022C22.489 20.9585 22.1964 22.1927 22.1963 23.7192C22.1963 25.246 22.4889 26.473 23.0791 27.4019C23.6667 28.328 24.549 28.7924 25.7266 28.7925C26.9018 28.7925 27.7902 28.3282 28.3906 27.4019C28.9884 26.473 29.2881 25.2459 29.2881 23.7192C29.288 22.1927 28.9884 20.9585 28.3906 20.022C27.7902 19.0828 26.9018 18.6138 25.7266 18.6138ZM83.793 13.0308H78.373V8.6665H83.793V13.0308Z" fill="black"/>
<path d="M173.568 14.6602C174.59 14.6602 175.509 14.8678 176.322 15.2783C177.133 15.6889 177.826 16.2613 178.398 16.9951C178.971 17.7289 179.407 18.5911 179.707 19.584C180.007 20.5795 180.158 21.6574 180.158 22.8223C180.158 24.0667 179.999 25.1984 179.676 26.2119C179.355 27.2253 178.899 28.0875 178.309 28.8008C177.716 29.514 177.01 30.061 176.187 30.4434C175.363 30.8257 174.452 31.0156 173.448 31.0156C172.445 31.0156 171.585 30.8311 170.874 30.459C170.161 30.0869 169.565 29.5789 169.083 28.9375H169.021V35.624H164.118V15.1113H168.812V16.9795H168.904C169.425 16.2766 170.066 15.7147 170.828 15.2939C171.59 14.8706 172.504 14.6602 173.568 14.6602ZM188.133 14.6602C189.236 14.6602 190.225 14.8316 191.1 15.1729C191.972 15.5141 192.739 15.9868 193.401 16.5898C194.322 17.4314 195.01 18.5012 195.462 19.7969C195.914 21.0901 196.129 22.5226 196.108 24.0879H185.033C185.195 25.132 185.554 25.9557 186.116 26.5586C186.678 27.159 187.471 27.4619 188.495 27.4619C189.136 27.4619 189.667 27.3256 190.091 27.0537C190.512 26.7843 190.833 26.4072 191.054 25.9248H195.839C195.677 26.6279 195.377 27.2949 194.936 27.9287C194.494 28.5599 193.933 29.1094 193.25 29.5713C192.609 30.0306 191.89 30.3818 191.1 30.623C190.307 30.8642 189.419 30.9843 188.437 30.9844C187.172 30.9844 186.027 30.7796 185.003 30.3691C183.982 29.956 183.117 29.3836 182.416 28.6523C181.713 27.9185 181.171 27.0482 180.789 26.0449C180.409 25.0418 180.22 23.9562 180.22 22.7939C180.22 21.6471 180.409 20.5795 180.789 19.584C181.171 18.591 181.713 17.7289 182.416 16.9951C183.117 16.2612 183.951 15.6889 184.913 15.2783C185.878 14.8679 186.95 14.6602 188.133 14.6602ZM202.549 15.1123H205.349V18.1855H202.549V25.4141C202.549 26.0144 202.705 26.418 203.016 26.6182C203.326 26.8183 203.745 26.9209 204.266 26.9209C204.486 26.9209 204.697 26.9155 204.897 26.9053C205.097 26.895 205.249 26.8896 205.349 26.8896V30.4746C205.128 30.5336 204.791 30.5899 204.34 30.6387C203.888 30.69 203.332 30.7158 202.67 30.7158C201.949 30.7158 201.292 30.6484 200.699 30.5176C200.107 30.3867 199.591 30.1615 199.149 29.8408C198.708 29.5201 198.366 29.0839 198.125 28.5322C197.884 27.978 197.764 27.2899 197.764 26.4688V18.1855H195.719V15.1123H197.764V10.2344H202.549V15.1123ZM172.094 18.6064C171.552 18.6064 171.08 18.7169 170.68 18.9375C170.277 19.1582 169.94 19.4638 169.671 19.8564C169.399 20.2489 169.199 20.7157 169.068 21.2568C168.937 21.7983 168.873 22.3813 168.873 23.0049C168.873 24.2698 169.158 25.2882 169.73 26.0605C170.303 26.8329 171.121 27.2207 172.184 27.2207C173.125 27.2206 173.864 26.8479 174.396 26.1064C174.926 25.3624 175.193 24.3285 175.193 23.0049C175.193 21.6783 174.942 20.6127 174.441 19.8096C173.939 19.0067 173.156 18.6065 172.094 18.6064ZM188.223 18.1553C187.281 18.1554 186.558 18.4274 186.058 18.9688C185.555 19.5101 185.224 20.2435 185.064 21.167H191.144C191.043 20.2436 190.733 19.5101 190.212 18.9688C189.688 18.4273 189.026 18.1553 188.223 18.1553Z" fill="black"/>
<path d="M212.259 23.5269C213.039 23.5269 213.681 23.7112 214.189 24.0806C214.694 24.45 215.036 24.9736 215.215 25.6509H213.789C213.671 25.338 213.483 25.0912 213.224 24.9116C212.97 24.7347 212.649 24.645 212.259 24.645C211.718 24.6451 211.287 24.8379 210.966 25.2202C210.643 25.6051 210.484 26.1414 210.484 26.8315C210.484 27.5241 210.643 28.0627 210.966 28.4526C211.287 28.8375 211.718 29.0278 212.259 29.0278C213.024 29.0278 213.535 28.6942 213.789 28.022H215.215C215.031 28.6737 214.682 29.1894 214.168 29.5718C213.655 29.9566 213.019 30.147 212.259 30.147C211.649 30.1469 211.105 30.0104 210.627 29.7358C210.155 29.4639 209.786 29.0768 209.519 28.5767C209.252 28.0712 209.119 27.4884 209.119 26.8315C209.119 26.1748 209.252 25.5975 209.519 25.0972C209.786 24.5917 210.155 24.2039 210.627 23.937C211.105 23.6651 211.649 23.5269 212.259 23.5269ZM226.745 24.5835C226.97 24.2756 227.278 24.0239 227.668 23.8237C228.064 23.6261 228.503 23.5269 228.983 23.5269C229.55 23.5269 230.063 23.6651 230.522 23.937C230.979 24.2039 231.338 24.5917 231.6 25.0972C231.867 25.5975 232 26.1697 232 26.811C232 27.4551 231.867 28.0302 231.6 28.5356C231.338 29.0436 230.977 29.4387 230.512 29.7261C230.053 30.0083 229.542 30.1469 228.983 30.147C228.483 30.147 228.041 30.0488 227.659 29.8589C227.274 29.669 226.97 29.4178 226.745 29.1099V30.0444H225.421V21.4331H226.745V24.5835ZM219.713 27.2017C219.713 27.7762 219.852 28.2171 220.134 28.5249C220.422 28.8327 220.814 28.9867 221.314 28.9868C221.812 28.9868 222.207 28.8328 222.495 28.5249C222.787 28.2171 222.936 27.7762 222.936 27.2017V23.6294H224.26V30.0444H222.936V29.2847C222.723 29.5515 222.446 29.7618 222.105 29.9106C221.769 30.0594 221.412 30.1372 221.038 30.1372C220.53 30.1372 220.075 30.0339 219.672 29.8286C219.275 29.6182 218.959 29.3055 218.728 28.895C218.502 28.4845 218.389 27.9891 218.389 27.4067V23.6294H219.713V27.2017ZM217.285 30.0444H215.96V21.4331H217.285V30.0444ZM228.695 24.6763C228.359 24.6763 228.041 24.7638 227.741 24.9331C227.446 25.105 227.207 25.3537 227.022 25.6821C226.837 26.0054 226.745 26.3877 226.745 26.8315C226.745 27.278 226.837 27.6633 227.022 27.9917C227.207 28.32 227.446 28.5714 227.741 28.7407C228.041 28.9125 228.359 28.9975 228.695 28.9976C229.036 28.9976 229.355 28.9126 229.65 28.7407C229.95 28.5637 230.189 28.3072 230.369 27.9712C230.553 27.6376 230.645 27.2498 230.645 26.811C230.645 26.3673 230.553 25.9849 230.369 25.6616C230.189 25.341 229.95 25.0973 229.65 24.9331C229.355 24.7638 229.036 24.6763 228.695 24.6763Z" fill="black"/>
</svg>
